<svg xmlns="http://www.w3.org/2000/svg" xmlns:xlink="http://www.w3.org/1999/xlink" width="40" zoomAndPan="magnify" viewBox="0 0 30 30.000001" height="40" preserveAspectRatio="xMidYMid meet" version="1.0"><defs><clipPath id="eeb71b19fa"><path d="M 0.484375 0 L 22.257812 0 L 22.257812 21.773438 L 0.484375 21.773438 Z M 0.484375 0 " clip-rule="nonzero"/></clipPath><clipPath id="b6dad3d0b6"><path d="M 2 2 L 29.515625 2 L 29.515625 29.03125 L 2 29.03125 Z M 2 2 " clip-rule="nonzero"/></clipPath></defs><g clip-path="url(#eeb71b19fa)"><path fill="#3a8c5d" d="M 11.371094 0 C 5.355469 0 0.484375 4.871094 0.484375 10.886719 C 0.484375 16.902344 5.355469 21.773438 11.371094 21.773438 C 17.386719 21.773438 22.257812 16.902344 22.257812 10.886719 C 22.257812 4.871094 17.386719 0 11.371094 0 Z M 11.371094 19.597656 C 6.558594 19.597656 2.660156 15.699219 2.660156 10.886719 C 2.660156 6.074219 6.558594 2.175781 11.371094 2.175781 C 16.183594 2.175781 20.082031 6.074219 20.082031 10.886719 C 20.082031 15.699219 16.183594 19.597656 11.371094 19.597656 Z M 11.371094 19.597656 " fill-opacity="1" fill-rule="nonzero"/></g><g clip-path="url(#b6dad3d0b6)"><path stroke-linecap="round" transform="matrix(0.504163, 0.504163, -0.513223, 0.513223, 19.063952, 16.529117)" fill="none" stroke-linejoin="miter" d="M 1.999655 1.997632 L 18.363395 1.997632 " stroke="#3a8c5d" stroke-width="4" stroke-opacity="1" stroke-miterlimit="4"/></g></svg>