<svg xmlns="http://www.w3.org/2000/svg" xmlns:xlink="http://www.w3.org/1999/xlink" width="40" zoomAndPan="magnify" viewBox="0 0 30 30.000001" height="40" preserveAspectRatio="xMidYMid meet" version="1.0"><defs><clipPath id="14153a978f"><path d="M 0.484375 10.160156 L 7.960938 10.160156 L 7.960938 17.636719 L 0.484375 17.636719 Z M 0.484375 10.160156 " clip-rule="nonzero"/></clipPath><clipPath id="2d28345f48"><path d="M 4.222656 10.160156 C 2.15625 10.160156 0.484375 11.835938 0.484375 13.898438 C 0.484375 15.964844 2.15625 17.636719 4.222656 17.636719 C 6.285156 17.636719 7.960938 15.964844 7.960938 13.898438 C 7.960938 11.835938 6.285156 10.160156 4.222656 10.160156 " clip-rule="nonzero"/></clipPath><clipPath id="d727c3d55d"><path d="M 11.261719 10.160156 L 18.738281 10.160156 L 18.738281 17.636719 L 11.261719 17.636719 Z M 11.261719 10.160156 " clip-rule="nonzero"/></clipPath><clipPath id="7c47a9c7b8"><path d="M 15 10.160156 C 12.9375 10.160156 11.261719 11.835938 11.261719 13.898438 C 11.261719 15.964844 12.9375 17.636719 15 17.636719 C 17.0625 17.636719 18.738281 15.964844 18.738281 13.898438 C 18.738281 11.835938 17.0625 10.160156 15 10.160156 " clip-rule="nonzero"/></clipPath><clipPath id="8f88c7b429"><path d="M 22.039062 10.160156 L 29.515625 10.160156 L 29.515625 17.636719 L 22.039062 17.636719 Z M 22.039062 10.160156 " clip-rule="nonzero"/></clipPath><clipPath id="c5558c34b3"><path d="M 25.777344 10.160156 C 23.714844 10.160156 22.039062 11.835938 22.039062 13.898438 C 22.039062 15.964844 23.714844 17.636719 25.777344 17.636719 C 27.84375 17.636719 29.515625 15.964844 29.515625 13.898438 C 29.515625 11.835938 27.84375 10.160156 25.777344 10.160156 " clip-rule="nonzero"/></clipPath></defs><g clip-path="url(#14153a978f)"><g clip-path="url(#2d28345f48)"><path fill="#000000" d="M 0.484375 10.160156 L 7.960938 10.160156 L 7.960938 17.636719 L 0.484375 17.636719 Z M 0.484375 10.160156 " fill-opacity="1" fill-rule="nonzero"/></g></g><g clip-path="url(#d727c3d55d)"><g clip-path="url(#7c47a9c7b8)"><path fill="#000000" d="M 11.261719 10.160156 L 18.738281 10.160156 L 18.738281 17.636719 L 11.261719 17.636719 Z M 11.261719 10.160156 " fill-opacity="1" fill-rule="nonzero"/></g></g><g clip-path="url(#8f88c7b429)"><g clip-path="url(#c5558c34b3)"><path fill="#000000" d="M 22.039062 10.160156 L 29.515625 10.160156 L 29.515625 17.636719 L 22.039062 17.636719 Z M 22.039062 10.160156 " fill-opacity="1" fill-rule="nonzero"/></g></g></svg>